HIERARCHY
ROOT pelvis
{
  OFFSET 0 100 0
  CHANNELS 6 Xposition Yposition Zposition Zrotation Xrotation Yrotation
  JOINT pelvis_right_femur
  {
    OFFSET -10.78128 -3.44521 -0.5502486
    CHANNELS 3 Zrotation Xrotation Yrotation
    JOINT right_femur_tibia
    {
      OFFSET -0.8047443 -44.0398 -0.1307829
      CHANNELS 3 Zrotation Xrotation Yrotation
      JOINT right_tibia_foot
      {
        OFFSET 3.006224 -47.83518 -5
        CHANNELS 3 Zrotation Xrotation Yrotation
        End Site
        {
          OFFSET 0 -5 15
        }
      }
    }
  }
  JOINT pelvis_left_femur
  {
    OFFSET 10.78128 -3.44521 -0.5502486
    CHANNELS 3 Zrotation Xrotation Yrotation
    JOINT left_femur_tibia
    {
      OFFSET 0.8047443 -44.0398 -0.1307829
      CHANNELS 3 Zrotation Xrotation Yrotation
      JOINT left_tibia_foot
      {
        OFFSET -4.370144 -48.10324 -4.275266
        CHANNELS 3 Zrotation Xrotation Yrotation
        End Site
        {
          OFFSET 0 -5 15
        }
      }
    }
  }
  JOINT pelvis_spine1
  {
    OFFSET 0 6.468898 -3.129235
    CHANNELS 3 Zrotation Xrotation Yrotation
    JOINT spine1
    {
      OFFSET 0 23.15396 4.99043
      CHANNELS 3 Zrotation Xrotation Yrotation
      JOINT spine2
      {
        OFFSET 0 20.79997 -5.064912
        CHANNELS 3 Zrotation Xrotation Yrotation
        JOINT neck
        {
          OFFSET 0 14.38658 9.616178
          CHANNELS 3 Zrotation Xrotation Yrotation
          End Site
          {
            OFFSET 0 20 0
          }
        }
      }
      JOINT right_manubrium
      {
        OFFSET -5.722621 16.35077 3.967754
        CHANNELS 3 Zrotation Xrotation Yrotation
        JOINT right_clavicle
        {
          OFFSET -13.16364 1.694482 -4.693211
          CHANNELS 3 Zrotation Xrotation Yrotation
          JOINT right_humerus
          {
            OFFSET -28.5034 -0.3100689 -2.792744
            CHANNELS 3 Zrotation Xrotation Yrotation
            JOINT right_radius
            {
              OFFSET -25.15693 0.02248979 -1.271978
              CHANNELS 3 Zrotation Xrotation Yrotation
              End Site
              {
                OFFSET -15 0 0
              }
            }
          }
        }
      }
      JOINT left_manubrium
      {
        OFFSET 5.722621 16.35077 3.967754
        CHANNELS 3 Zrotation Xrotation Yrotation
        JOINT left_clavicle
        {
          OFFSET 13.16364 1.694482 -4.693211
          CHANNELS 3 Zrotation Xrotation Yrotation
          JOINT left_humerus
          {
            OFFSET 29.39168 -1.063119 -2.237045
            CHANNELS 3 Zrotation Xrotation Yrotation
            JOINT left_radius
            {
              OFFSET 24.59957 -0.9528479 0.9047498
              CHANNELS 3 Zrotation Xrotation Yrotation
              End Site
              {
                OFFSET 15 -0 -0
              }
            }
          }
        }
      }
    }
  }
}
MOTION
Frames: 21
Frame Time: 0.0416666666667
0 103.5113 0 1.005327 -0.8679082 -0.04864458 3.134972 -17.34106 8.130481 -0 35.68183 -0 -5.026368 -15.61851 -3.590313 -6.886696 11.90326 -22.99021 -0 5.300638 -0 5.123673 -18.82348 24.7028 -3.204015 -4.450296 6.17074 1.779763 10.19892 -7.798219 1.595736 21.93774 5.805584 2.10059 -24.84405 9.194113 4.648603 -22.29594 11.18821 83.51152 33.33366 -14.56146 -0 0 19.22221 -10.79772 7.081672 4.099224 7.849592 -21.20751 1.731303 -93.54039 20.22911 23.16123 0 0 -8.146158 15.01324 19.97893 -5.394322
0.2405233 103.501 1.627875 0.008062528 -0.5578566 -0.18577 4.560952 -20.40956 8.74883 -0 36.35767 -0 -5.757247 -13.92025 -4.005327 -5.976306 12.10015 -22.53111 -0 6.301131 -0 3.4149 -20.28456 23.98331 -2.988516 -3.968646 5.992533 2.00032 10.23693 -7.740383 1.566015 21.80694 5.979367 2.281118 -25.17844 9.249164 4.653416 -21.67031 11.31867 84.16524 33.73793 -15.31141 -0 0 18.05701 -10.37363 7.376754 4.196639 7.453124 -21.22632 1.289816 -93.23791 20.2632 22.62313 0 0 -9.651557 14.72101 18.82996 -4.817798
0.5164273 103.3052 3.501489 -0.3965777 0.9658511 -0.2648986 5.707921 -25.29328 9.039231 -0 32.11799 -0 -5.539071 -12.44808 -3.828021 -5.779938 11.92599 -21.4268 -0 5.87235 -0 4.759535 -21.08885 23.4868 -2.811633 -3.601444 5.885317 2.030072 10.28471 -7.643493 1.499967 21.66711 6.172295 2.539902 -25.06205 9.17582 4.922317 -21.07844 11.40909 84.51952 34.26544 -15.9483 -0 0 17.2274 -10.2494 7.861661 4.490293 7.212244 -21.27847 0.8166448 -93.17637 20.90115 22.45482 0 0 -11.06204 13.73939 17.9232 -3.305767
0.8079943 102.8758 5.740181 -0.5929584 2.29993 -0.2409402 6.474788 -29.38224 8.889901 -0 27.30843 -0 -5.287392 -10.75714 -3.510937 -5.770069 12.02216 -20.2619 -0 5.635828 -0 6.061807 -21.69965 22.91075 -2.674953 -3.296808 5.813926 2.045282 10.34595 -7.574208 1.421364 21.58226 6.299457 2.722918 -24.93271 9.051192 5.027106 -20.67339 11.50322 84.81959 34.60455 -16.32457 -0 0 16.57781 -10.43807 8.254647 4.866137 6.997519 -21.33627 0.449606 -93.02608 21.20491 22.28747 0 0 -12.03081 13.02589 17.16204 -2.292697
1.090406 102.2514 8.4781 -0.8202506 3.418151 -0.06853643 7.159746 -33.01638 8.48742 -0 22.57098 -0 -5.226139 -8.637064 -3.185838 -5.731624 12.49654 -19.04118 -0 6.083231 -0 6.750526 -22.33322 22.06548 -2.55922 -3.033578 5.759664 2.03274 10.40193 -7.510829 1.339929 21.51224 6.409703 2.895103 -24.74555 8.903213 5.136756 -20.31824 11.58371 85.04738 34.88706 -16.63295 -0 0 16.04858 -10.7218 8.63907 5.258749 6.822136 -21.38186 0.1176521 -92.91308 21.53831 22.17616 0 0 -12.82517 12.28427 16.49294 -1.27374
1.333423 101.4869 11.85385 -1.080681 4.137574 0.2919133 7.585902 -35.69919 7.664977 -0 18.31749 -0 -5.435195 -6.250561 -2.890487 -5.620095 13.40906 -17.76931 -0 7.47086 -0 6.331248 -22.9029 20.66686 -2.462243 -2.800475 5.716006 2.016048 10.4534 -7.457625 1.260438 21.458 6.500886 3.043209 -24.56155 8.751547 5.210749 -20.01894 11.65676 85.23858 35.09796 -16.87145 -0 0 15.59993 -11.06762 8.983012 5.647612 6.667224 -21.41663 -0.1705587 -92.793 21.7999 22.06654 0 0 -13.46463 11.62255 15.88677 -0.39571
1.513849 100.6832 15.97748 -1.372677 4.430156 0.8575388 7.734415 -37.02716 6.539428 -0 14.99473 -0 -5.866623 -3.998258 -2.674203 -5.399884 14.6468 -16.53143 -0 10.04137 -0 4.57456 -23.12827 18.58507 -2.378468 -2.589653 5.676753 1.998025 10.4972 -7.412358 1.184572 21.41192 6.581095 3.176646 -24.3823 8.602814 5.271963 -19.75086 11.72126 85.39941 35.26059 -17.07662 -0 0 15.21033 -11.43149 9.298838 6.020207 6.530454 -21.43807 -0.4289075 -92.67864 22.03732 21.9591 0 0 -14.00498 11.00509 15.32723 0.4080434
1.623367 99.98245 20.90141 -1.682052 4.291212 1.595248 7.668418 -36.59376 5.31713 -0 13.04343 -0 -6.462184 -2.3121 -2.561409 -5.018536 15.92082 -15.35439 -0 14.04475 -0 1.51695 -22.50398 15.80736 -2.305659 -2.396752 5.640318 1.981938 10.53464 -7.374405 1.112956 21.3722 6.651928 3.295721 -24.21534 8.460366 5.318522 -19.50996 11.77904 85.53844 35.38072 -17.25412 -0 0 14.8661 -11.80243 9.58618 6.374548 6.407167 -21.44864 -0.6608555 -92.56332 22.24221 21.84599 0 0 -14.46717 10.43911 14.80454 1.131648
1.677204 99.5647 26.56573 -2.022401 3.837793 2.392428 7.646171 -34.28274 4.45863 -0 12.81898 -0 -7.112706 -1.64276 -2.583247 -4.405265 16.66274 -14.23355 -0 19.67778 -0 -2.285872 -20.41455 12.67609 -2.241922 -2.218717 5.605768 1.967994 10.56634 -7.342498 1.045534 21.33713 6.715288 3.402841 -24.05974 8.324629 5.35465 -19.29046 11.83089 85.65885 35.46603 -17.41069 -0 0 14.55915 -12.17351 9.849348 6.711068 6.29513 -21.44956 -0.8711967 -92.4478 22.42252 21.7275 0 0 -14.86818 9.915101 14.31265 1.791689
1.71128 99.60363 32.75899 -2.417376 3.267371 3.036984 7.926823 -30.45356 4.419547 -0 14.24427 -0 -7.676776 -2.223521 -2.748483 -3.548225 16.08856 -13.08862 -0 26.99537 -0 -5.675452 -16.48633 9.962456 -2.186244 -2.053598 5.573466 1.955678 10.5936 -7.3153 0.9820544 21.30614 6.771962 3.499133 -23.91403 8.195095 5.381249 -19.09023 11.8778 85.76255 35.52104 -17.54704 -0 0 14.28478 -12.5445 10.09084 7.032317 6.192254 -21.44249 -1.062763 -92.33115 22.57925 21.60424 0 0 -15.21723 9.428253 13.84738 2.395846
1.765928 100.1956 39.13904 -2.839452 2.697088 3.261198 8.516862 -25.89716 5.205961 -0 16.51861 -0 -8.134083 -3.814016 -2.963331 -2.61623 13.51198 -11.84681 -0 35.79878 -0 -7.363218 -11.17957 8.561135 -2.137996 -1.899989 5.544148 1.943915 10.61745 -7.291348 0.9221821 21.279 6.822518 3.585741 -23.77559 8.070748 5.399559 -18.90768 11.92049 85.84988 35.54951 -17.66268 -0 0 14.04053 -12.91684 10.3132 7.341224 6.096968 -21.42846 -1.237913 -92.21376 22.715 21.47835 0 0 -15.5204 8.972201 13.40562 2.953313
1.868942 101.2992 45.35256 -3.086324 1.915144 2.892587 8.999243 -21.3034 5.959724 -0 18.16934 -0 -8.77017 -5.683543 -2.961954 -2.020832 8.876435 -10.61728 -0 45.47283 -0 -6.923411 -6.122991 8.821865 -2.096833 -1.756864 5.518815 1.93152 10.63884 -7.269179 0.8656255 21.25573 6.86728 3.663502 -23.64185 7.950564 5.410269 -18.74204 11.95957 85.92048 35.55417 -17.7559 -0 0 13.82531 -13.2928 10.51834 7.640658 6.007901 -21.40817 -1.398354 -92.09609 22.83147 21.35219 0 0 -15.78146 8.541696 12.98487 3.471356
2.03354 102.7357 51.19478 -2.770345 0.4965993 2.064765 8.667493 -16.53595 5.414937 -0 17.84452 -0 -9.809511 -7.205657 -2.474434 -2.197498 2.921222 -9.711915 -0 54.65345 -0 -5.405704 -3.414802 10.14251 -2.062498 -1.623382 5.498385 1.917454 10.65846 -7.24747 0.812183 21.23635 6.906506 3.733119 -23.51066 7.833747 5.414065 -18.59271 11.99547 85.97378 35.53728 -17.82515 -0 0 13.63869 -13.67401 10.70779 7.932843 5.923915 -21.38193 -1.54546 -91.97889 22.93053 21.22811 0 0 -16.00332 8.132197 12.58297 3.956373
2.24987 104.241 56.67728 -1.639662 -1.497935 1.238124 7.225366 -10.72386 3.687984 -0 15.49655 -0 -10.34263 -8.487533 -1.702241 -2.975599 -3.539036 -9.134825 -0 60.96143 -0 -4.569134 -3.686519 11.46295 -2.034664 -1.498778 5.483426 1.901081 10.67673 -7.225219 0.7617783 21.22073 6.940474 3.795162 -23.38074 7.71994 5.411649 -18.45901 12.0285 86.00957 35.50072 -17.86978 -0 0 13.4801 -14.06062 10.88272 8.21899 5.844093 -21.34987 -1.680401 -91.86289 23.01396 21.10778 0 0 -16.18902 7.740426 12.19803 4.413391
2.464572 105.4959 61.95172 -0.0887614 -3.365367 0.7458012 5.445516 -3.765602 2.735052 -0 12.5214 -0 -8.898109 -9.863317 -1.340973 -3.224267 -10.1885 -8.20157 -0 61.68813 -0 -4.98083 -5.079363 12.6328 -2.012794 -1.382273 5.473905 1.882355 10.69383 -7.201938 0.7144595 21.20843 6.969556 3.850129 -23.25185 7.609311 5.403891 -18.33985 12.05885 86.02855 35.44632 -17.89099 -0 0 13.34817 -14.45068 11.04411 8.499056 5.767783 -21.3121 -1.804317 -91.74855 23.0836 20.99179 0 0 -16.34252 7.364486 11.82842 4.846089
2.643936 106.1622 67.17666 0.9206887 -4.675045 0.4087826 4.45727 2.814207 3.277143 -0 10.25858 -0 -6.249742 -11.26129 -1.527932 -1.926444 -16.49317 -6.359494 -0 55.73123 -0 -5.408016 -5.642538 14.4028 -1.996064 -1.273018 5.469064 1.861886 10.70974 -7.177761 0.6703622 21.19872 6.994248 3.89848 -23.12482 7.502498 5.391825 -18.23356 12.08663 86.03268 35.37588 -17.89219 -0 0 13.24024 -14.84028 11.19287 8.771822 5.694605 -21.26897 -1.918436 -91.63584 23.14121 20.87935 0 0 -16.46913 7.003834 11.4727 5.25679
2.859301 106.0801 72.45891 0.9166717 -5.300082 -0.07294674 4.540048 7.606014 3.938301 -0 8.999123 -0 -4.447381 -12.66841 -1.570203 0.4496758 -21.57971 -4.085995 -0 45.07329 -0 -4.940891 -5.396887 16.4469 -1.98339 -1.170075 5.467497 1.840814 10.72438 -7.153416 0.6296409 21.19058 7.01515 3.940672 -23.0012 7.400392 5.376564 -18.13796 12.11194 86.02517 35.29113 -17.87878 -0 0 13.15224 -15.2243 11.33004 9.035333 5.624411 -21.22113 -2.024146 -91.52413 23.1883 20.76825 0 0 -16.57533 6.658908 11.12956 5.646734
3.199395 105.3858 77.89715 0.3474529 -5.130417 -0.7320788 4.974889 10.75648 4.008549 -0 8.643898 -0 -3.60026 -14.2122 -1.119068 2.546312 -25.11252 -2.332852 -0 33.62257 -0 -4.160309 -5.087715 17.82944 -1.973554 -1.072442 5.467454 1.820504 10.73773 -7.130006 0.5923954 21.1829 7.032883 3.977161 -22.88272 7.30383 5.359126 -18.05056 12.13493 86.01007 35.19363 -17.85722 -0 0 13.0792 -15.59779 11.45685 9.287607 5.557187 -21.16965 -2.122962 -91.41214 23.22591 20.65531 0 0 -16.66806 6.330496 10.79768 6.016558
3.680313 104.3394 83.59514 -0.173877 -4.459906 -1.448209 5.004753 13.1849 3.762963 -0 9.208079 -0 -2.916736 -15.67345 -0.4322866 3.502317 -27.24409 -1.633051 -0 24.38886 -0 -3.82689 -5.110175 18.50641 -1.965413 -0.9791703 5.467274 1.802163 10.74994 -7.10868 0.558633 21.17469 7.04798 4.008372 -22.77063 7.213324 5.340275 -17.96902 12.15577 85.99144 35.08449 -17.8336 -0 0 13.01614 -15.95721 11.57467 9.527273 5.492951 -21.11577 -2.216385 -91.29827 23.25455 20.53713 0 0 -16.7536 6.01909 10.47572 6.366838
4.265167 103.1785 89.63721 -0.3610338 -3.821592 -2.133538 4.400426 15.4975 3.428469 -0 10.81236 -0 -2.265251 -16.45614 0.1881086 3.215176 -28.18853 -1.995253 -0 18.45102 -0 -4.023392 -5.510617 18.92567 -1.958068 -0.8894969 5.4657 1.78659 10.76131 -7.090361 0.5282849 21.16523 7.060809 4.034663 -22.66544 7.128997 5.320497 -17.89147 12.17467 85.97262 34.96442 -17.81269 -0 0 12.95895 -16.30083 11.68482 9.753773 5.431718 -21.0607 -2.305725 -91.18097 23.27441 20.41089 0 0 -16.83684 5.724592 10.16248 6.698394
4.907297 102.0954 96.07392 -0.1931428 -3.608558 -2.737848 3.297308 17.72164 3.095326 -0 13.7023 -0 -1.87675 -15.85394 0.5706143 2.001265 -28.06849 -3.110218 -0 15.65961 -0 -4.384941 -6.159049 19.35986 -1.950894 -0.8028936 5.461933 1.774159 10.77222 -7.075674 0.5012467 21.15409 7.071576 4.056311 -22.56698 7.050669 5.300064 -17.8166 12.19182 85.95603 34.83383 -17.79767 -0 0 12.90467 -16.62836 11.78851 9.967187 5.3735 -21.00553 -2.39202 -91.05898 23.28548 20.27458 0 0 -16.9211 5.446378 9.857095 7.012309
